<?xml version="1.0" encoding="UTF-8"?> <!-- Generator: Adobe Illustrator 25.0.0, SVG Export Plug-In . SVG Version: 6.00 Build 0) --> <svg xmlns="http://www.w3.org/2000/svg" xmlns:xlink="http://www.w3.org/1999/xlink" version="1.1" id="Calque_1" x="0px" y="0px" viewBox="0 0 208 54" style="enable-background:new 0 0 208 54;" xml:space="preserve"> <style type="text/css"> .st0{fill:#005CB9;} </style> <g> <path class="st0" d="M68.5,49.1l-1.1-2.5H64l-1,2.2l0.1,0.3h-0.9l3.1-7l-0.2-0.3H66l3.3,7.3H68.5z M65.7,42.8L64.3,46h2.8 L65.7,42.8z"></path> <path class="st0" d="M69.8,49.1v-6.8l-0.2-0.3l0.9-0.3v7.4H69.8z"></path> <path class="st0" d="M74.8,44.7c0.3,0.3,0.5,0.6,0.5,1c0,1.3-1.6,1.7-1.6,2c0,0.6,2,0.4,2,1.7c0,0.5-0.3,0.9-0.7,1.1l-0.3,0.2 c-0.4,0.2-0.9,0.3-1.3,0.3c-0.8,0-1.9-0.3-1.9-1.2c0-0.7,0.4-0.9,0.9-1.2c0.3-0.1,0.6-0.3,0.8-0.4C73.1,48.2,73,48.1,73,48 c0-0.2,0.2-0.4,0.4-0.5c0,0,0,0-0.1,0c-0.3,0-0.8-0.1-1.1-0.3c-0.5-0.3-0.7-0.8-0.7-1.3c0-0.6,0.3-1.1,0.8-1.4 c0.4-0.3,0.7-0.4,1.2-0.4c0.2,0,0.4,0,0.6,0.1h1.4v0.5H74.8z M73.5,48.5c-0.3,0.1-0.6,0.3-0.9,0.5c-0.3,0.2-0.4,0.3-0.4,0.7 c0,0.8,0.9,1,1.5,1c0.2,0,0.7,0,0.9-0.2c0.2-0.2,0.4-0.5,0.4-0.7C74.9,48.9,74.1,48.8,73.5,48.5z M73.3,44.5c-0.6,0-1,0.6-1,1.1 c0,0.7,0.6,1.3,1.3,1.3c0.6,0,1-0.6,1-1.1C74.6,45.2,74,44.5,73.3,44.5z"></path> <path class="st0" d="M80.9,45.8c0.1,0.3,0.1,0.5,0.1,0.8h-4.1c0,0,0,0.1,0,0.1c0,0.2,0.1,0.4,0.1,0.6c0.3,0.8,1.1,1.4,2,1.4 c0.3,0,0.9-0.1,1.1-0.3c0.2-0.2,0.4-0.3,0.6-0.5l0.2,0.3c-0.1,0.1-0.3,0.3-0.5,0.4c-0.6,0.3-1.1,0.6-1.8,0.6 c-1.4,0-2.5-1.1-2.5-2.5c0-0.9,0.4-1.7,1.2-2.1l0.3-0.2c0.4-0.2,0.7-0.3,1.2-0.3C79.8,44.1,80.7,44.8,80.9,45.8z M78.5,44.6 c-0.3,0-0.6,0-0.8,0.2c-0.5,0.3-0.8,0.8-0.9,1.4h3.5C80.2,45.3,79.4,44.6,78.5,44.6z"></path> <path class="st0" d="M84.5,44.8c-0.2-0.1-0.5-0.2-0.8-0.2c-0.5,0-0.9,0.3-1.1,0.7v3.7h-0.7v-4.4l-0.2-0.3l0.9-0.3v0.7 c0.1-0.2,0.4-0.3,0.6-0.5c0.3-0.2,0.6-0.3,1-0.3c0.2,0,0.4,0,0.5,0.1L84.5,44.8z"></path> <path class="st0" d="M85.3,49.1v-4.4l-0.2-0.3l0.9-0.3v5H85.3z M85.6,43.4c-0.2,0-0.4-0.2-0.4-0.4c0-0.3,0.3-0.4,0.5-0.4 c0.2,0,0.4,0.2,0.4,0.4C86.1,43.2,85.8,43.4,85.6,43.4z"></path> <path class="st0" d="M91.2,49.1h-0.2c-0.6,0-0.8-0.2-0.9-0.7c-0.4,0.4-1.1,0.8-1.6,0.8c-0.8,0-1.4-0.5-1.4-1.3c0-0.6,0.2-1,0.7-1.3 l0.3-0.2c0.5-0.3,1.3-0.4,1.9-0.4c0-0.1,0-0.3,0-0.4c0-0.6-0.5-1-1.1-1c-0.4,0-0.9,0.1-1.3,0.3l-0.1-0.3c0.6-0.3,1.1-0.5,1.8-0.5 c0.8,0,1.5,0.4,1.5,1.3v2.5c0,0.5,0.2,0.7,0.7,0.7L91.2,49.1z M90,46.4c-0.5,0-1.4,0.1-1.8,0.3c-0.3,0.2-0.5,0.6-0.5,0.9 c0,0.7,0.6,1.1,1.2,1.1c0.5,0,0.9-0.3,1.1-0.7V46.4z"></path> </g> <g> <path class="st0" d="M30.3,49.9c-11.9,0-21.6-9.7-21.6-21.6c0-11.9,9.7-21.6,21.6-21.6c11.9,0,21.6,9.7,21.6,21.6 C51.8,40.2,42.2,49.9,30.3,49.9z M30.3,7.9C19,7.9,9.8,17,9.8,28.3c0,11.3,9.2,20.5,20.5,20.5c11.3,0,20.5-9.2,20.5-20.5 C50.8,17,41.6,7.9,30.3,7.9z"></path> <path class="st0" d="M13.5,52.6l-4.1-1.7c0,0,5.6-11,17.6-15.4c9.7-3.6,19.1-2,26.7,2.8c0,0-13.8-7.3-28.5,2.1 c-6.8,4.4-10.9,11.4-10.9,11.4"></path> <path class="st0" d="M24.6,37.7c0.4-0.7,2-2.6,3.4-5.1c2.7-4.7,5.3-8.8,5.6-17.4c0.3-8.4-2.4-14-2.2-14c0.1,0-3.8,6.7-4.3,14 c-0.5,6.9,0.2,5.9-0.4,12.8C26.4,32.1,24.6,37.7,24.6,37.7"></path> </g> <g> <polyline class="st0" points="71,16.2 71,19.1 65.6,19.1 65.6,38.2 62.4,38.2 62.4,19.1 57,19.1 57,16.2 71,16.2 "></polyline> <polyline class="st0" points="76.4,38.1 73.5,38.1 73.5,23.3 72.8,22.1 76.4,21 76.4,38.1 "></polyline> <path class="st0" d="M100.7,38.1h-2.9V26.6c0-1-0.3-1.8-1-2.5c-0.7-0.6-1.5-1-2.5-1c-1.3,0-2.4,0.7-3.3,2.1v12.8h-2.9V26.6 c0-1-0.3-1.8-1-2.5c-0.7-0.6-1.5-1-2.5-1c-1.4,0-2.4,0.7-3.3,2.1v12.8h-2.9V23.3l-0.7-1.3l3.6-1v2.4c0.6-0.7,1.3-1.2,2.3-1.7 c1-0.5,1.9-0.7,2.7-0.7c0.9,0,1.8,0.2,2.5,0.7c0.8,0.5,1.3,1.1,1.6,2c0.5-0.6,1.3-1.3,2.6-1.9C94.1,21.3,95,21,96,21 c1.4,0,2.5,0.4,3.4,1.3c0.9,0.9,1.3,2,1.3,3.3V38.1"></path> <path class="st0" d="M117.6,36.2l-0.8,2h-1c-1.9,0-3-0.8-3.3-2.4c-0.6,0.7-1.5,1.3-2.5,1.8c-1.1,0.6-2.1,0.9-2.9,0.9 c-1.4,0-2.6-0.4-3.5-1.2c-1-0.8-1.4-1.9-1.4-3.3c0-1.9,0.8-3.4,2.5-4.3l1.3-0.8c1.4-0.8,3.4-1.2,6.2-1.4c0-0.3,0-0.7-0.1-1.3 c-0.1-1-0.5-1.7-1.2-2.3c-0.7-0.5-1.5-0.7-2.5-0.7c-1.5,0-3,0.4-4.3,1.1l-0.5-1.3c2.3-1.3,4.5-1.9,6.4-1.9c1.5,0,2.8,0.4,3.7,1.2 c0.9,0.8,1.4,1.9,1.4,3.4v8.2c0,0.9,0.2,1.5,0.5,1.9C116,36.1,116.7,36.2,117.6,36.2 M112.3,34.3v-5.1c-2.9,0-4.8,0.3-5.8,0.9 c-0.9,0.6-1.4,1.5-1.4,2.9c0,1,0.4,1.8,1.1,2.5c0.8,0.6,1.7,0.9,2.7,0.9C110.2,36.4,111.3,35.7,112.3,34.3z"></path> <path class="st0" d="M131.4,36.7c-1.3,0.7-2.2,1.2-2.8,1.4c-0.8,0.3-1.9,0.4-3.1,0.4c-2.4,0-4.4-0.8-6-2.4 c-1.7-1.6-2.5-3.6-2.5-5.9c0-1.5,0.4-2.9,1.1-4.2c0.7-1.3,1.8-2.3,3.1-3l1.3-0.8c1.4-0.8,2.8-1.2,4.3-1.2c1.6,0,3.1,0.3,4.4,1 l-1,2.4c-1.4-0.9-3-1.3-4.7-1.3c-1.2,0-2.1,0.2-2.7,0.6c-0.9,0.6-1.6,1.4-2.1,2.4c-0.5,1-0.8,2.1-0.8,3.2c0,1.9,0.7,3.6,2.1,4.9 c1.4,1.4,3,2.1,4.9,2.1c1.7,0,3.2-0.4,4.4-1.1L131.4,36.7"></path> <path class="st0" d="M76.2,17.9c0,1-0.8,1.7-1.7,1.7c-1,0-1.7-0.8-1.7-1.7c0-1,0.8-1.7,1.7-1.7C75.4,16.2,76.2,17,76.2,17.9"></path> <path class="st0" d="M152.3,38.1H150l-2.4-5.4h-7.4l-2,4.5l0.3,0.9h-2.5l7-15.7l-0.4-0.9h2.2L152.3,38.1 M147,31.2l-3-6.9l-3,6.9 H147z"></path> <path class="st0" d="M166.7,35.8c-0.4,0.3-1.1,0.7-2,1.2c-1.7,1-3.6,1.5-5.6,1.5c-2.3,0-4.3-0.8-6-2.4c-1.7-1.6-2.5-3.6-2.5-6 c0-1.5,0.4-2.9,1.1-4.2c0.7-1.3,1.8-2.3,3.1-3l0.9-0.5c1.4-0.8,2.8-1.2,4.3-1.2c2.2,0,4.1,0.6,5.8,1.8l-0.7,1.9 c-1.8-1.4-3.8-2.1-6-2.1c-1.3,0-2.3,0.3-3.2,0.8c-1,0.6-1.8,1.5-2.4,2.6c-0.6,1.1-0.9,2.3-0.9,3.5c0,2.1,0.7,3.8,2.2,5.3 c1.4,1.4,3.2,2.2,5.2,2.2c1.4,0,2.7-0.3,3.9-0.9c0.2-0.1,0.4-0.2,0.7-0.4v-4.3h-6.1l0.6-1.5h7.6V35.8"></path> <path class="st0" d="M180,38.1h-2.6l-5.4-6.7h-1.6v6.7h-2V22.4l-0.5-0.9h6c1.3,0,2.4,0.5,3.4,1.4c0.9,0.9,1.4,2,1.4,3.3 c0,1.8-0.8,3.1-2.3,4c-0.8,0.5-1.5,0.7-2.1,0.7L180,38.1 M176.6,26.7c0-1-0.4-1.9-1.1-2.6c-0.7-0.7-1.6-1.1-2.6-1.1h-2.4v6.9h3.3 c0.6,0,1-0.1,1.4-0.3c0.4-0.3,0.8-0.7,1.1-1.3C176.4,27.8,176.6,27.3,176.6,26.7z"></path> <path class="st0" d="M197.2,29.6c0,1.5-0.4,2.9-1.1,4.2c-0.7,1.3-1.7,2.3-3.1,3.1c-1.9,1.1-3.7,1.7-5.2,1.7c-2.4,0-4.4-0.8-6-2.4 c-1.6-1.6-2.5-3.6-2.5-6c0-1.5,0.4-2.9,1.1-4.2c0.7-1.3,1.8-2.3,3.1-3.1c1-0.6,1.8-1,2.5-1.2c0.8-0.3,1.7-0.5,2.7-0.5 c2.4,0,4.3,0.8,6,2.4C196.3,25.2,197.2,27.2,197.2,29.6 M195.1,30.1c0-2-0.7-3.8-2.1-5.2c-1.4-1.5-3.1-2.2-5.2-2.2 c-1.3,0-2.3,0.3-3.2,0.8c-1,0.6-1.8,1.5-2.4,2.6c-0.5,1.1-0.8,2.2-0.8,3.5c0,2.1,0.7,3.8,2.1,5.3c1.4,1.4,3.1,2.2,5.2,2.2 c1.3,0,2.3-0.3,3.1-0.8c1-0.6,1.8-1.5,2.4-2.6C194.8,32.5,195.1,31.3,195.1,30.1z"></path> </g> </svg> 